<svg xmlns="http://www.w3.org/2000/svg" xmlns:xlink="http://www.w3.org/1999/xlink" width="40" height="40" viewBox="0 0 40 40"><defs><path id="zd2ga" d="M963 2144a20 20 0 1 1 40 0 20 20 0 0 1-40 0z"/><path id="zd2gb" d="M986.35 2149.57h-8.4c-.58 1.1-1.1 2.27-1.53 3.43H971c2.81-8.05 11.04-19.16 17.7-19.97.98-.12 1.56.11 1.62.9L992 2153h-5.39zm-1.04-10.2a29.58 29.58 0 0 0-4.9 5.9h5.62l-.43-5.85c0-.17-.15-.2-.3-.05z"/></defs><g><g transform="translate(-963 -2124)"><g><use fill="#4a82c7" fill-opacity=".85" xlink:href="#zd2ga"/></g><g><use fill="#fff" xlink:href="#zd2gb"/></g></g></g></svg>