<svg xmlns="http://www.w3.org/2000/svg" xmlns:xlink="http://www.w3.org/1999/xlink" width="45" height="23" viewBox="0 0 45 23"><defs><path id="r84ha" d="M983.56 37.19h2.25l9.96 22.4h-3.26l-2.97-6.6h-9.47l-2.8 6.6H974zm4.68 12.96l-3.6-8.07-3.32 8.07zm10.02 9.4V37.32h7.51c3.03 0 5.42.45 7.19 1.36 1.76.9 3.17 2.25 4.2 4.01a11.15 11.15 0 0 1-1.75 13.63 10.78 10.78 0 0 1-3.77 2.4c-.84.34-1.61.56-2.32.67-.7.1-2.04.16-4.01.16zm7.18-19.4h-3.99v16.57h4.08c1.6 0 2.83-.11 3.71-.33a7.55 7.55 0 0 0 3.83-2.06 8.25 8.25 0 0 0 2.36-6.05 7.64 7.64 0 0 0-4.47-7.23c-.77-.36-1.5-.6-2.2-.72-.68-.12-1.8-.18-3.32-.18z"/></defs><g><g transform="translate(-974 -37)"><use fill="#fff" xlink:href="#r84ha"/></g></g></svg>