<svg xmlns="http://www.w3.org/2000/svg" xmlns:xlink="http://www.w3.org/1999/xlink" width="60" height="51" viewBox="0 0 60 51"><defs><path id="all1a" d="M961.7 54.54c.02.05.02.09 0 .13a.9.9 0 0 1-.12.2.35.35 0 0 1-.08.1c-.23.2-5.62 5.1-12.38 5.1-6.76 0-12.14-4.9-12.37-5.1a.34.34 0 0 1-.08-.1.91.91 0 0 1-.13-.2v-.13-.23-.07-.31l.06-.15v-.06l10.73-17.76h-14.4V62.2h2.92a1 1 0 0 1 0 2h-2.92v2h6.74a1 1 0 0 1 0 2h-6.74v2h10.28a1 1 0 0 1 0 2H920.6a1 1 0 1 1 0-2h10.3v-2h-6.73a1 1 0 1 1 0-2h6.73v-2h-3.43a1 1 0 1 1 0-2h3.43V35.96h-14.4l10.66 17.34c.2.27.3.6.3.93-.02.43-.27.81-.65 1-1.2.97-6.11 4.85-12.11 4.85-6.77 0-12.15-4.89-12.37-5.09a1 1 0 0 1-.2-1.27l11.73-19.34a.74.74 0 0 1 .08-.07 1 1 0 0 1 .77-.38h16.22v-2.66a4.69 4.69 0 1 1 2 0v2.68h16.22a1 1 0 0 1 .77.4c0 .06.08.06.08.06l11.7 19.28v.07l.07.15v.6zm-29.8-30.53c-1.07 0-2.04.66-2.45 1.65h4.93a2.66 2.66 0 0 0-2.46-1.65zm-2.44 3.7a2.67 2.67 0 0 0 4.93 0zm-24.64 25.51h19.78l-9.9-16.32zm1.28 2.04a16.59 16.59 0 0 0 8.6 2.8 16.61 16.61 0 0 0 8.6-2.8zm43.03-18.33l-9.88 16.33h19.77zm-8.6 18.33a14.64 14.64 0 0 0 17.2 0z"/></defs><g><g transform="translate(-902 -22)"><use fill="#fff" xlink:href="#all1a"/></g></g></svg>